<svg xmlns="http://www.w3.org/2000/svg" xmlns:xlink="http://www.w3.org/1999/xlink" width="191.204" height="465.225" viewBox="0 0 191.204 465.225"><defs><style>.a{fill:url(#a);}.b{fill:#ef5d29;}.c,.n,.s{fill:#fff;}.d{fill:#1b1736;}.e,.h{fill:#c0ccec;}.f{opacity:0.2;}.g,.h,.j,.t{opacity:0.5;}.g,.j,.t{mix-blend-mode:multiply;isolation:isolate;}.i{fill:#f1bcb4;}.j{fill:#ee863f;}.k{fill:#2d2a51;}.l,.m,.o,.p,.t{fill:none;}.l,.m,.o,.p{stroke:#1b1736;}.l,.m,.t{stroke-linecap:round;stroke-linejoin:round;}.l,.o{stroke-width:0.2px;}.m{stroke-width:0.4px;}.n{opacity:0.34;}.o,.p{stroke-miterlimit:10;}.p{stroke-width:0.15px;}.q{fill:#c12633;}.q,.r,.s{fill-rule:evenodd;}.r{fill:#da4559;}.t{stroke:#ee863f;stroke-width:1.44px;}</style><linearGradient id="a" x1="-0.165" y1="0.05" x2="0.545" y2="0.633" gradientUnits="objectBoundingBox"><stop offset="0" stop-color="#ef5d29"/><stop offset="1" stop-color="#e34227"/></linearGradient></defs><g transform="translate(0)"><g transform="translate(0 108.111)"><g transform="translate(28.35)"><g transform="translate(12.114)"><g transform="translate(0)"><g transform="translate(63.393)"><path class="a" d="M1502.208,272.567s11.571-1.867,18.3,3.513a27.888,27.888,0,0,1,10.592,19.5c.841,7.4,6.185,35.985,6.185,35.985l10.46-14.129,11.525,10.118s-9.729,46.644-18.865,49.787-19.055-7.113-21.409-8.963S1502.208,272.567,1502.208,272.567Z" transform="translate(-1502.208 -272.254)"/></g><g transform="translate(0 0.008)"><path class="b" d="M1598.473,272.268s15.184,21.667,16.943,27.2,14.567,15.542,14.326,28.658a126.491,126.491,0,0,1-1.6,17.842,27.7,27.7,0,0,0,.195,10.115l5.929,28.584s-3.77,6.534-13.069,7.54-33,6.6-48.757,0l-11.309-5.529V342.441l-7.791-18.1-22.176-35.938s11.325-7.841,21.888-11.231C1564.155,273.614,1582.118,273.3,1598.473,272.268Z" transform="translate(-1531.164 -272.268)"/></g><g transform="translate(76.09 15.279)"><g transform="translate(0)"><path class="c" d="M1558.958,389.174a5.7,5.7,0,0,0-.135-1c-.132-.716-.3-1.66-.522-2.84-.5-2.537-1.194-6.078-2.047-10.421-.377-2.212-1.1-4.565-1.454-7.164q-.151-.971-.306-1.974-.088-1.011-.177-2.052a38.889,38.889,0,0,1-.109-4.289,38.366,38.366,0,0,1,1.538-9.069c.823-3.083,1.9-6.378,1.7-9.891a28.188,28.188,0,0,0-2.49-9.738,62.728,62.728,0,0,0-4.37-8.253c-3.141-5.05-6.315-9.35-8.926-12.991l-6.21-8.606-1.688-2.341a5.41,5.41,0,0,0-.627-.79,5.457,5.457,0,0,0,.511.87q.6.914,1.58,2.416c1.394,2.084,3.453,5.072,6.03,8.739,2.559,3.676,5.689,8,8.778,13.04a63.419,63.419,0,0,1,4.289,8.185,27.687,27.687,0,0,1,2.421,9.492c.2,3.373-.836,6.577-1.659,9.687a35.191,35.191,0,0,0-1.38,13.585q.1,1.055.2,2.079.167,1.013.328,1.995c.389,2.621,1.139,4.979,1.545,7.181.944,4.321,1.713,7.844,2.264,10.367.271,1.168.486,2.1.651,2.812A5.309,5.309,0,0,0,1558.958,389.174Z" transform="translate(-1533.129 -297.754)"/></g></g></g></g><g transform="translate(0 11.553)"><path class="b" d="M1610.44,291.536s-27.657,9.9-17.159,44.379c8.359,27.459,25.538,60.225,36.405,60.875,5.644.337,11.793.126,15.63-2.9,15.546-12.25,25.009-45.093,25.009-45.093l-14.87-16.616-18.024,26.71c-2.027-.869-14.022-37.849-14.022-37.849S1614.785,292.695,1610.44,291.536Z" transform="translate(-1590.903 -291.536)"/></g><g transform="translate(32.676 44.149)"><path class="c" d="M1590.22,345.94a3.415,3.415,0,0,0,.194.663c.167.479.385,1.106.66,1.9l2.6,7.151c2.3,6.2,5.545,14.942,9.423,25.39l.221.6.359-.53,18.063-26.683-.58.052,1.828,1.87,13.721,14.017-.085-.363a174.042,174.042,0,0,1-7.187,19.738,92.317,92.317,0,0,1-8,14.53,78.845,78.845,0,0,1-6.764,8.57l-2.034,2.1a6.158,6.158,0,0,0-.675.759,6.061,6.061,0,0,0,.762-.668q.787-.748,2.125-2.024a71.446,71.446,0,0,0,6.964-8.479A89.7,89.7,0,0,0,1630,390a168.983,168.983,0,0,0,7.31-19.773l.066-.209-.151-.155-13.7-14.037-1.828-1.87-.323-.33-.258.383L1603.13,380.74l.581.068c-3.982-10.409-7.314-19.121-9.675-25.3-1.175-3.007-2.107-5.392-2.768-7.086-.314-.774-.564-1.39-.755-1.86A3.62,3.62,0,0,0,1590.22,345.94Z" transform="translate(-1590.218 -345.94)"/></g></g><g transform="translate(0 101.659)"><g transform="translate(43.642)"><path class="d" d="M1527.187,451.309s-6.631,11.091-13.931,25.391-11.378,83.668-11.378,83.668l1.53,36.092s-2.2,31.029-.517,53.139,3.574,46.621,3.574,46.621l30.328,1.159,32.183-187.563-8.051,86.5c-5.123,22.064-4.52,60.978-3.527,101.035l32.126.028s11.064-59.87,13.588-74.092c2.85-16.073,11.255-60.279,11.255-60.279s6.474-42.3,4.227-65.092-19.316-54.652-19.877-55.992l-68.6,9.831" transform="translate(-1501.176 -441.925)"/></g><g transform="translate(0 1.199)"><g transform="translate(0 2.98)"><path class="e" d="M1627.257,448.9l-8.048,21.406s-59.8,83.433-58.065,90.386,34.33,33.9,43.89,29.55,34.331-22.162,42.587-39.979,31.723-67.791,31.723-67.791l7.388-13.906-8.258-5.649Z" transform="translate(-1561.107 -448.899)"/></g><g transform="translate(128.004)"><path class="e" d="M1505.948,443.926h0c-7.247,3.889-6.476,16.044-13.721,19.932,12.091,16.931,16.227,38.251,17.874,58.991s1.137,41.748,5.3,62.134l15.011-1.056a353.016,353.016,0,0,0-12.8-119.006A52.317,52.317,0,0,0,1505.948,443.926Z" transform="translate(-1492.227 -443.926)"/></g><g transform="translate(59.029 24.697)"><g transform="translate(0)"><path class="c" d="M1656.069,495.556a17.081,17.081,0,0,1-3.783-.87,79.862,79.862,0,0,1-17.177-7.385,17.071,17.071,0,0,1-3.233-2.147,24.339,24.339,0,0,1,3.486,1.685c2.122,1.086,5.076,2.538,8.414,3.976s6.424,2.578,8.673,3.37A24.359,24.359,0,0,1,1656.069,495.556Z" transform="translate(-1631.875 -485.146)"/></g></g><g class="f" transform="translate(42.992 95.255)"><path d="M1620.6,606.282l-1.447.105a35.323,35.323,0,0,0,39.3,7.216c4.383-2.056,8.738-5.857,8.542-10.695A88.267,88.267,0,0,1,1620.6,606.282Z" transform="translate(-1619.156 -602.908)"/></g><g transform="translate(41.691 22.425)"><g transform="translate(0.37 0.073)"><path class="e" d="M1643.685,481.681c-5.59-1.026-16.325,1.9-20.252,6.007s-6.287,9.449-8.223,14.791c-4.2,11.582-7.179,24.407-16.282,32.7-8.564,7.806-20.735,9.9-32.187,11.659-.312,4.231-.263,9.27,3.218,11.695a11.072,11.072,0,0,0,3.456,1.434,56.568,56.568,0,0,0,10.409,1.847c16.3,1.338,33.578-5.225,43.148-18.494,12.106-16.784,13.063-36.95,19.909-56.478" transform="translate(-1566.62 -481.475)"/></g><path class="c" d="M1647.248,486.8a4.173,4.173,0,0,1-.165.616c-.134.434-.318,1.026-.554,1.785-.5,1.562-1.188,3.887-2,6.9-.824,3.008-1.721,6.718-2.767,11.027s-2.227,9.223-3.875,14.567a79.187,79.187,0,0,1-7.133,16.829,48.845,48.845,0,0,1-5.917,8.325,43.1,43.1,0,0,1-8.191,7.093,50.972,50.972,0,0,1-21.705,7.93,54.167,54.167,0,0,1-12.3.122,56.751,56.751,0,0,1-6.217-1.028c-1.034-.229-2.061-.491-3.088-.78a11.165,11.165,0,0,1-3.029-1.259,7.142,7.142,0,0,1-2.339-2.541,10.557,10.557,0,0,1-1.074-3.2,26.089,26.089,0,0,1-.159-6.419l.022-.293.291-.045c7.657-1.177,15.149-2.448,21.824-5.245a35.37,35.37,0,0,0,9.073-5.359,33.6,33.6,0,0,0,6.656-7.546c3.6-5.533,5.7-11.508,7.628-17.022,1.919-5.532,3.549-10.755,5.716-15.254a36.267,36.267,0,0,1,3.644-6.1,27.275,27.275,0,0,1,2.129-2.482,13.328,13.328,0,0,1,2.446-1.88,30.768,30.768,0,0,1,9.406-3.542,26.32,26.32,0,0,1,6.3-.64,10.123,10.123,0,0,1,2.184.269c-.008.049-.749-.118-2.188-.128a27.775,27.775,0,0,0-6.234.766,30.966,30.966,0,0,0-9.255,3.609,13.045,13.045,0,0,0-2.353,1.84,26.792,26.792,0,0,0-2.072,2.458,35.918,35.918,0,0,0-3.552,6.043c-2.116,4.464-3.713,9.68-5.608,15.23-1.908,5.531-3.993,11.554-7.632,17.191a34.21,34.21,0,0,1-6.77,7.717,35.992,35.992,0,0,1-9.239,5.485c-6.774,2.851-14.322,4.133-21.986,5.319l.312-.339a25.489,25.489,0,0,0,.151,6.233,7.518,7.518,0,0,0,3.085,5.246,20.869,20.869,0,0,0,5.875,1.939,56.124,56.124,0,0,0,6.136,1.017,53.578,53.578,0,0,0,12.13-.11,50.418,50.418,0,0,0,21.416-7.778,42.582,42.582,0,0,0,8.084-6.96,48.327,48.327,0,0,0,5.871-8.2,79.274,79.274,0,0,0,7.164-16.675c1.673-5.313,2.882-10.215,3.973-14.51s2.025-8,2.892-11c.852-3,1.581-5.32,2.132-6.869l.625-1.763A4.226,4.226,0,0,1,1647.248,486.8Z" transform="translate(-1566.617 -481.354)"/><g transform="translate(11.569 63.5)"><g transform="translate(0)"><path class="c" d="M1677.665,603.47c-.231-.066,1.563-3.61,1.036-8.26-.44-4.662-2.923-7.76-2.711-7.872a5.716,5.716,0,0,1,1.576,1.976,14.783,14.783,0,0,1,1.235,11.9A5.714,5.714,0,0,1,1677.665,603.47Z" transform="translate(-1675.977 -587.335)"/></g></g><g transform="translate(0.836 69.087)"><path class="c" d="M1691.216,596.8c.013.2-2.848.563-6.391.8s-6.425.264-6.439.059,2.847-.563,6.389-.8S1691.2,596.594,1691.216,596.8Z" transform="translate(-1678.386 -596.661)"/></g><g transform="translate(1.565 73.629)"><path class="c" d="M1689.68,604.5c0,.206-2.972.434-6.644.511s-6.657-.027-6.661-.233,2.971-.434,6.646-.511S1689.675,604.294,1689.68,604.5Z" transform="translate(-1676.375 -604.242)"/></g></g><g transform="translate(109.398 26.331)"><g transform="translate(0)"><g transform="translate(0.329 0)"><path class="e" d="M1549.773,487.874c10.013,9.04,13.756,23.37,13.39,36.854s-4.286,26.576-7.3,39.725-5.125,26.949-1.888,40.044l-12.839,1.839a53.936,53.936,0,0,1-14.227-42.046c1.317-12.573,7.027-24.187,11.121-36.147s6.52-25.45,1.362-36.991" transform="translate(-1526.635 -487.874)"/></g><path class="c" d="M1539.3,491.152a3.919,3.919,0,0,1,.265.562c.173.409.409.967.709,1.684a35.731,35.731,0,0,1,1.717,6.819,45.463,45.463,0,0,1,.119,11.145,75.265,75.265,0,0,1-3.139,14.459c-1.647,5.244-3.882,10.834-6.123,16.887-2.208,6.051-4.483,12.616-5.466,19.808a52.806,52.806,0,0,0,1.834,22.5,53.494,53.494,0,0,0,12.1,21.065l-.322-.112,6.308-.9,6.53-.935-.307.456a68.287,68.287,0,0,1-.949-24.626,193.62,193.62,0,0,1,4.5-22.45c1.732-7.066,3.376-13.766,4.417-20.118a85.634,85.634,0,0,0,1.257-17.782c-.5-10.928-3.863-19.376-7.132-24.45a38.5,38.5,0,0,0-4.243-5.535l-1.276-1.292a3.888,3.888,0,0,1-.419-.459,4.18,4.18,0,0,1,.469.405c.322.3.763.715,1.331,1.245a36.077,36.077,0,0,1,4.374,5.484c3.366,5.065,6.834,13.563,7.407,24.575a85.463,85.463,0,0,1-1.174,17.906c-1.02,6.388-2.646,13.112-4.358,20.18a195.029,195.029,0,0,0-4.44,22.378,67.814,67.814,0,0,0,.953,24.361l.1.4-.4.058-6.53.937-6.308.9-.191.028-.131-.14a54.093,54.093,0,0,1-12.249-21.367,53.368,53.368,0,0,1-1.813-22.8c1.017-7.276,3.331-13.871,5.569-19.925,2.271-6.055,4.53-11.625,6.2-16.832a75.664,75.664,0,0,0,3.225-14.349,46.006,46.006,0,0,0,.005-11.062,38.241,38.241,0,0,0-1.574-6.809l-.641-1.7C1539.352,491.357,1539.3,491.152,1539.3,491.152Z" transform="translate(-1526.208 -487.873)"/></g><g transform="translate(7.917 105.484)"><path class="c" d="M1563.162,664.733c-.033.234-4.052-.527-8.965.156-4.921.634-8.6,2.427-8.69,2.208a7.422,7.422,0,0,1,2.351-1.278,25.311,25.311,0,0,1,12.7-1.7A7.412,7.412,0,0,1,1563.162,664.733Z" transform="translate(-1545.505 -663.927)"/></g><g transform="translate(12.719 107.617)"><path class="c" d="M1563.325,678c-.183.093-1.531-2.183-3.012-5.083s-2.534-5.329-2.352-5.422,1.532,2.182,3.014,5.084S1563.508,677.9,1563.325,678Z" transform="translate(-1557.941 -667.488)"/></g><g transform="translate(19.93 105.944)"><g transform="translate(0)"><path class="c" d="M1551.621,675.924c-.188.081-1.428-2.366-2.77-5.465s-2.275-5.68-2.086-5.761,1.428,2.365,2.769,5.466S1551.809,675.842,1551.621,675.924Z" transform="translate(-1546.74 -664.696)"/></g></g></g><g transform="translate(115.29 14.956)"><g transform="translate(0.04 1.975)"><path class="c" d="M1574.245,477.389c-.088.028-.3-.279-.4-.86a4.166,4.166,0,0,1,1.735-4.016c.495-.321.862-.379.9-.295.1.187-1.054.9-1.657,2.352C1574.176,476.007,1574.451,477.334,1574.245,477.389Z" transform="translate(-1573.791 -472.184)"/></g><g transform="translate(0)"><path class="e" d="M1565.382,472.939c-1.734-2.725-5.837-3.644-9.042-4.028a7.88,7.88,0,0,0-8.109,6.935,8.706,8.706,0,0,0,6.315,8.865,9.743,9.743,0,0,0,10.313-4.052C1566.366,478.384,1566.848,475.241,1565.382,472.939Z" transform="translate(-1548.198 -468.887)"/></g><g transform="translate(6.136 1.539)"><path class="c" d="M1560.957,471.459c.048-.06.908.554,1.71,2.019a8.58,8.58,0,0,1-3.066,11.437,4.566,4.566,0,0,1-2.49.894c-.041-.12.931-.4,2.2-1.329a8.693,8.693,0,0,0,2.887-10.771C1561.561,472.275,1560.862,471.544,1560.957,471.459Z" transform="translate(-1557.109 -471.455)"/></g><g transform="translate(15.278 3.021)"><g transform="translate(0)"><path class="c" d="M1549.209,473.934c.065-.053.561.393,1.034,1.347a7.72,7.72,0,0,1-.833,7.87c-.661.834-1.239,1.166-1.291,1.1-.082-.088.353-.551.857-1.4a8.886,8.886,0,0,0,.781-7.373C1549.44,474.547,1549.111,474,1549.209,473.934Z" transform="translate(-1548.109 -473.93)"/></g></g></g><g class="g" transform="translate(122.9 26.314)"><g transform="translate(0)"><path class="e" d="M1557.823,487.844a13.29,13.29,0,0,1-9.757,4.446,6.7,6.7,0,0,0,5.046,3.49,5.18,5.18,0,0,0,4.711-7.936Z" transform="translate(-1548.066 -487.844)"/></g></g><g class="g" transform="translate(58.703 25.804)"><path class="e" d="M1652.188,500.081c-1.319-1.629-3.39-2.411-5.362-3.122-7.438-2.686-15.46-7.28-22.9-9.965,6.784,6.018,14.134,13.117,21.918,17.771,1.88,1.124,4.337,2.193,6.119.921C1653.669,504.467,1653.507,501.71,1652.188,500.081Z" transform="translate(-1623.927 -486.994)"/></g><g class="g" transform="translate(136.077 29.117)"><g transform="translate(0)"><path class="h" d="M1534.564,515.673c-1.161-8.932-5.29-17.748-12.5-23.151,3.874,7.058,7.8,14.238,9.524,22.1,1.9,8.638.5,14.16-.355,22.963l.835,4.342C1534.5,533.254,1535.723,524.606,1534.564,515.673Z" transform="translate(-1522.067 -492.522)"/></g></g><g transform="translate(58.434 23.902)"><g transform="translate(0)"><path class="c" d="M1656.847,504.99a4.281,4.281,0,0,1-1.154-.566c-.72-.4-1.737-1.028-2.97-1.836a90.259,90.259,0,0,1-17.407-15.034c-.98-1.1-1.747-2.018-2.25-2.671a4.289,4.289,0,0,1-.729-1.06,40.264,40.264,0,0,1,3.362,3.373c2.045,2.1,4.94,4.943,8.325,7.87s6.617,5.373,9,7.09A40.545,40.545,0,0,1,1656.847,504.99Z" transform="translate(-1632.332 -483.819)"/></g></g></g></g><g transform="translate(119.872 31.967)"><g transform="translate(0)"><path class="e" d="M1526.008,330.587l-9.361,35.362a4.4,4.4,0,0,1-4.337,3.272l-48.472-.952a4.4,4.4,0,0,1-4.216-5.3l7.139-33.867a4.4,4.4,0,0,1,4.3-3.491h51.112A3.965,3.965,0,0,1,1526.008,330.587Z" transform="translate(-1459.525 -325.607)"/></g><g transform="translate(52.961 6.608)"><g transform="translate(0)"><path class="i" d="M1469.253,343a3.562,3.562,0,0,0,.023-4.389,5.424,5.424,0,0,0-4.161-1.966,11.87,11.87,0,0,0-4.626.96,30.026,30.026,0,0,0-5.247,2.618c-1.172.735-2.385,1.693-2.614,3.056s1.252,2.92,2.454,2.236a5.791,5.791,0,0,0-3.387,4.035c-.25,1.726.672,2.653,2.343,3.15a2.6,2.6,0,0,0-1.5,3.325,2.986,2.986,0,0,0,3.74,1.141,8.7,8.7,0,0,0,3.26-2.735,7.984,7.984,0,0,0-.93,5.48,10.717,10.717,0,0,0,7.009-8.606,4.955,4.955,0,0,0,1.347-6.091,5.133,5.133,0,0,0,3.057-4.29" transform="translate(-1451.655 -336.636)"/></g></g><g transform="translate(55.377 18.774)"><path class="j" d="M1459.172,360.854a14.384,14.384,0,0,0,1.6-1.221,10.75,10.75,0,0,1,4.2-2.152,5.757,5.757,0,0,1,2.56,0,4.766,4.766,0,0,1,1.867.933,5.95,5.95,0,0,1,1.216,1.534,1.1,1.1,0,0,0-.142-.531,3.742,3.742,0,0,0-.885-1.217,4.77,4.77,0,0,0-1.962-1.079,5.835,5.835,0,0,0-2.738-.038,9.879,9.879,0,0,0-4.3,2.327A7.667,7.667,0,0,0,1459.172,360.854Z" transform="translate(-1459.17 -356.942)"/></g><g transform="translate(55.785 12.724)"><g transform="translate(0)"><path class="j" d="M1456.478,349.771a8.523,8.523,0,0,0,1.939-.808,22.192,22.192,0,0,1,2.063-.9,17.462,17.462,0,0,1,2.653-.688,7.617,7.617,0,0,1,2.7-.026,4.92,4.92,0,0,1,2,.868,5.053,5.053,0,0,1,1.3,1.556,1.154,1.154,0,0,0-.154-.552,3.6,3.6,0,0,0-.974-1.229,4.9,4.9,0,0,0-2.1-1.008,7.524,7.524,0,0,0-2.838-.007,15.578,15.578,0,0,0-2.718.737,17.269,17.269,0,0,0-2.063,1A15.028,15.028,0,0,0,1456.478,349.771Z" transform="translate(-1456.478 -346.843)"/></g></g><g transform="translate(31.733 17.048)"><path class="c" d="M1512.694,354.113l-.27-.042a2.379,2.379,0,1,0,.27.042Z" transform="translate(-1509.821 -354.061)"/></g></g><g transform="translate(91.92 11.93)"><g transform="translate(0)"><path class="i" d="M1591.234,317.144s5.141-10.032,6.663-9.444,3.511.623,2.537,4.417-3.5,6.4-3.35,9.38,2.481,9.657-.108,12.768-6.968,12.474-6.968,12.474l-11.39-11.6,2.546-3.737s-4.269-5.923-5.1-9.362.42-8.308.42-8.308a8.281,8.281,0,0,1,1.242-5.066,36.4,36.4,0,0,1-.227-4.6c.051-2.323,6.042-11.9,6.042-11.9a3.477,3.477,0,0,1,2.039,4.374,45.028,45.028,0,0,1-2.36,5.917l7-2.665a3.9,3.9,0,0,1-1.889,5.4c-3.713,2.006-4.293,3.693-4.293,3.693l5.323.4s.495,2.959-1.638,3.562l-2.135.6Z" transform="translate(-1575.776 -292.165)"/></g><g transform="translate(6.492 20.517)"><path class="j" d="M1592.085,326.408l-4.8,1.033-.075.016-.034.071a8.539,8.539,0,0,0-.937,4.264,7.85,7.85,0,0,0,2.214,4.738,18.5,18.5,0,0,0,4.759,3.052,12.015,12.015,0,0,1,3.653,2.617,5.653,5.653,0,0,1,1.334,2.676c.127.708.043,1.115.088,1.118.015,0,.039-.1.072-.289a3.53,3.53,0,0,0,0-.852,5.536,5.536,0,0,0-1.268-2.845,11.83,11.83,0,0,0-3.7-2.768,18.983,18.983,0,0,1-4.641-3,7.573,7.573,0,0,1-2.123-4.473,8.428,8.428,0,0,1,.833-4.1l-.108.087A26.735,26.735,0,0,0,1592.085,326.408Z" transform="translate(-1586.224 -326.408)"/></g><g transform="translate(1.821 16.666)"><path class="j" d="M1603.6,324.468a8.811,8.811,0,0,0,.5-1.124,4.821,4.821,0,0,1,1.961-2.043,9.8,9.8,0,0,1,2.748-.972,4.693,4.693,0,0,0,1.208-.3,3.109,3.109,0,0,0-1.256,0,7.785,7.785,0,0,0-2.91.9,5.034,5.034,0,0,0-1.317,1.087,4.326,4.326,0,0,0-.707,1.2A2.381,2.381,0,0,0,1603.6,324.468Z" transform="translate(-1603.582 -319.981)"/></g><g transform="translate(2.447 10.404)"><path class="j" d="M1605.067,314.368c.109.063.908-1.28,2.269-2.6s2.707-2.112,2.645-2.223a8.948,8.948,0,0,0-4.914,4.828Z" transform="translate(-1605.057 -309.53)"/></g></g></g><g transform="translate(21.07 0)"><path class="k" d="M1643.014,212.584s-9.37,35.269,8.549,37.327,15.713-5.609,15.713-5.609l1.533-19.9Z" transform="translate(-1611.863 -140.225)"/><path class="k" d="M1613.849,248.014s.767,14.156,11.9,16.816-30.8,1.236-30.757-4.035S1613.849,248.014,1613.849,248.014Z" transform="translate(-1543.375 -154.427)"/><g transform="translate(63.713 71.502)"><path class="d" d="M1590.144,211.153a76.442,76.442,0,0,0,2.913,15.737,47.065,47.065,0,0,0,7.372,14.206,26.4,26.4,0,0,0,5.833,5.482,20.614,20.614,0,0,0,7.325,3.123,20.532,20.532,0,0,1-7.215-3.283,26.123,26.123,0,0,1-5.637-5.56,46.485,46.485,0,0,1-6.942-14.208A76.142,76.142,0,0,1,1590.144,211.153Z" transform="translate(-1590.144 -211.153)"/></g><path class="i" d="M1604.415,218.039s2.572,13.911,7.9,17.391,3.717,7.725,3.546,11.588l-.486,11.006a11.643,11.643,0,0,0,13.056,12.067h0a11.642,11.642,0,0,0,9.733-14.878l-3.145-10.558a10.125,10.125,0,0,1,2.895-10.3,23.5,23.5,0,0,0,7.352-20.134Z" transform="translate(-1566.836 -140.88)"/><path class="j" d="M1641.407,251.3c-.976,1.225-2.312,2.816-4.153,4.863-3.48,3.87-15.075,6.146-15.075,6.146s-.5-1.775,0-6.508-5.467-8.4-5.142-8.051,26.854.035,26.854.035A10.4,10.4,0,0,0,1641.407,251.3Z" transform="translate(-1572.834 -154.312)"/><rect class="i" width="49.873" height="75.967" rx="24.936" transform="translate(42.188 23.947) rotate(5.505)"/><g transform="translate(57.388 60.694)"><ellipse class="d" cx="2.614" cy="3.927" rx="2.614" ry="3.927" transform="translate(8.114 8.537) rotate(-171.538)"/><g transform="translate(0 0.048)"><path class="l" d="M1632.709,194.54a7.908,7.908,0,0,0-2.111-.573,5.946,5.946,0,0,0-4.336.972" transform="translate(-1624.58 -193.478)"/><path class="d" d="M1638.174,193.8a9.347,9.347,0,0,1-2.292-.558c-.677-.358.71,1.368,1.221,1.7S1638.174,193.8,1638.174,193.8Z" transform="translate(-1635.7 -193.195)"/></g><ellipse class="d" cx="2.614" cy="3.927" rx="2.614" ry="3.927" transform="translate(26.571 9.836) rotate(-171.538)"/><g transform="translate(22.474 2.097)"><g transform="translate(0)"><path class="l" d="M1591.884,196.789a7.934,7.934,0,0,1,2.182-.159,5.951,5.951,0,0,1,4.071,1.783" transform="translate(-1591.884 -196.615)"/><path class="d" d="M1588.677,197.873a9.325,9.325,0,0,0,2.356-.11c.733-.222-.958,1.209-1.523,1.437S1588.677,197.873,1588.677,197.873Z" transform="translate(-1583.039 -197.065)"/></g></g></g><path class="m" d="M1623.756,183.473a6.055,6.055,0,0,1,7.216.056" transform="translate(-1563.954 -128.089)"/><path class="m" d="M1589.995,186.1a6.056,6.056,0,0,0-7.094-1.322" transform="translate(-1498.497 -128.832)"/><path class="d" d="M1636.123,164.093c-14.389-3.491-28.694-26.478-37.462-2.691-2.8,19.925-5.948,17.557-5.948,17.557l-7.571-13.34s.382-3.864.939-9.64a23.3,23.3,0,0,1,14.986-18.742C1613.435,131.018,1640.463,138.665,1636.123,164.093Z" transform="translate(-1546.436 -109.201)"/><ellipse class="n" cx="9.219" cy="14.594" rx="9.219" ry="14.594" transform="matrix(-0.995, -0.096, 0.096, -0.995, 70.976, 78.175)"/><path class="n" d="M1618.44,173.963l5.073,26.948a11.414,11.414,0,0,0,5.486-5.578l-5.077-22.934c-.176-.033-.348-.076-.527-.093A6.9,6.9,0,0,0,1618.44,173.963Z" transform="translate(-1558.795 -124.069)"/><path class="n" d="M1578.753,179.02l5.072,26.948a11.407,11.407,0,0,0,5.485-5.578l-5.076-22.934c-.175-.033-.348-.076-.526-.093A6.9,6.9,0,0,0,1578.753,179.02Z" transform="translate(-1495.328 -126.096)"/><ellipse class="o" cx="9.219" cy="14.594" rx="9.219" ry="14.594" transform="matrix(-0.995, -0.096, 0.096, -0.995, 70.976, 78.175)"/><ellipse class="n" cx="9.219" cy="14.594" rx="9.219" ry="14.594" transform="matrix(-0.995, -0.096, 0.096, -0.995, 92.416, 81.364)"/><ellipse class="o" cx="9.219" cy="14.594" rx="9.219" ry="14.594" transform="matrix(-0.995, -0.096, 0.096, -0.995, 92.416, 81.364)"/><path class="d" d="M1634.715,160.585s-28.962,40.711,6.836,57.43c-37.371-.612-52.291,3.1-44.4-26.89s31.261-83.085,73.818-51.759C1689.425,156.8,1634.715,160.585,1634.715,160.585Z" transform="translate(-1590.585 -107.041)"/><ellipse class="i" cx="9.241" cy="9.241" rx="9.241" ry="9.241" transform="translate(28.804 59.667)"/><ellipse class="d" cx="19.439" cy="19.439" rx="19.439" ry="19.439" transform="translate(7.089)"/><g transform="translate(0 29.427)"><path class="d" d="M1714.235,150.1a23.042,23.042,0,0,1-5.854,1.669,16.814,16.814,0,0,1-5.991-.132,12,12,0,0,1-5.422-2.332c-1.635-1.173-2.73-2.914-4.092-4.466a11.864,11.864,0,0,0-4.9-3.672,4.55,4.55,0,0,0-3.044.045,6.2,6.2,0,0,0-1.354.726,7.5,7.5,0,0,1-1.289.82,7.6,7.6,0,0,0,1.315-.78,6.156,6.156,0,0,1,1.359-.676,4.41,4.41,0,0,1,2.952.046,11.609,11.609,0,0,1,4.674,3.74c.65.785,1.22,1.6,1.862,2.424.3.424.668.794,1.009,1.187a14.772,14.772,0,0,0,1.156,1.054,12.655,12.655,0,0,0,5.639,2.634,17.362,17.362,0,0,0,6.2-.242A23.237,23.237,0,0,0,1714.235,150.1Z" transform="translate(-1682.286 -140.93)"/></g><g transform="translate(2.045 25.609)"><path class="d" d="M1704.938,134.557a95.149,95.149,0,0,0-11.906,9.634,108.767,108.767,0,0,0-10.39,11.295,91.586,91.586,0,0,0-14.475,26.943,79.814,79.814,0,0,0-3.8,30.243,79.606,79.606,0,0,1,4.163-30.121,91.02,91.02,0,0,1,14.715-26.6,108.194,108.194,0,0,1,10.052-11.488A95.051,95.051,0,0,1,1704.938,134.557Z" transform="translate(-1664.191 -134.557)"/></g><path class="p" d="M1674.548,117.948s14.605-29.712-21.9-24.425" transform="translate(-1627.727 -92.247)"/><g transform="translate(61.51 79.758)"><path class="q" d="M1609.022,226.005A7.223,7.223,0,1,0,1623.33,228h-.012a1.25,1.25,0,0,0-1.064-1.407l-11.812-1.642a1.249,1.249,0,0,0-1.407,1.062Z" transform="translate(-1608.952 -224.933)"/><path class="r" d="M1615.99,235.542a7.223,7.223,0,0,0,8.2,1.656,4.5,4.5,0,0,0-3.723-3.208A4.56,4.56,0,0,0,1615.99,235.542Z" transform="translate(-1614.029 -228.53)"/><path class="s" d="M1621.716,226.717l-11.1-1.545a2.54,2.54,0,0,0,.835,2.908c.961.467,9.024,1.376,9.68.823A4.29,4.29,0,0,0,1621.716,226.717Z" transform="translate(-1608.258 -225.028)"/></g><path class="j" d="M1671.177,203.8a8.159,8.159,0,0,0-2.286-2.682,8.383,8.383,0,0,0-3.1-1.487,11.414,11.414,0,0,1,2.693,1.963c.186.178.362.365.531.557-.081-.044-.158-.093-.241-.135a3.956,3.956,0,0,0-1.463-.446,1.729,1.729,0,0,0-1.543.708,2.6,2.6,0,0,0,.02,2.939,3.772,3.772,0,0,0,2.223,1.646,4.065,4.065,0,0,1-1.747-1.9,2.036,2.036,0,0,1,.153-2.181c.39-.539,1.184-.319,1.936.063a11.5,11.5,0,0,1,2.113,1.481l.02.018a.448.448,0,0,0,.691-.548Z" transform="translate(-1629.114 -135.032)"/><path class="t" d="M1608.853,211.834s2.591,2.8-.117,4.99" transform="translate(-1533.953 -139.924)"/></g></g></svg>